<svg width="17" height="17" viewBox="0 0 17 17" fill="none" xmlns="http://www.w3.org/2000/svg">
<circle cx="8.5" cy="8.5" r="8.5" fill="white"/>
<path d="M8.50071 7.25C8.17522 7.25 7.86306 7.37833 7.6329 7.60676C7.40274 7.8352 7.27344 8.14502 7.27344 8.46807C7.27344 8.79112 7.40274 9.10094 7.6329 9.32938C7.86306 9.55781 8.17522 9.68614 8.50071 9.68614C8.8262 9.68614 9.13836 9.55781 9.36852 9.32938C9.59868 9.10094 9.72798 8.79112 9.72798 8.46807C9.72798 8.14502 9.59868 7.8352 9.36852 7.60676C9.13836 7.37833 8.8262 7.25 8.50071 7.25Z" fill="#2A2A2A"/>
<path fill-rule="evenodd" clip-rule="evenodd" d="M5.93968 4.14037C7.64136 3.95321 9.35866 3.95321 11.0603 4.14037C11.99 4.24334 12.7395 4.96952 12.8487 5.89534C13.0504 7.60739 13.0504 9.33695 12.8487 11.049C12.7395 11.9748 11.99 12.701 11.0608 12.8045C9.35899 12.9917 7.64152 12.9917 5.93968 12.8045C5.01003 12.701 4.26054 11.9748 4.15137 11.0495C3.94954 9.33728 3.94954 7.60755 4.15137 5.89534C4.26054 4.96952 5.01003 4.24334 5.93968 4.14037ZM10.9477 5.55775C10.8179 5.55775 10.6934 5.60892 10.6016 5.70002C10.5098 5.79111 10.4582 5.91466 10.4582 6.04348C10.4582 6.17231 10.5098 6.29586 10.6016 6.38695C10.6934 6.47805 10.8179 6.52922 10.9477 6.52922C11.0776 6.52922 11.2021 6.47805 11.2939 6.38695C11.3857 6.29586 11.4373 6.17231 11.4373 6.04348C11.4373 5.91466 11.3857 5.79111 11.2939 5.70002C11.2021 5.60892 11.0776 5.55775 10.9477 5.55775ZM6.17467 8.47217C6.17467 7.86025 6.41966 7.27339 6.85574 6.8407C7.29183 6.408 7.88329 6.16492 8.50001 6.16492C9.11673 6.16492 9.70819 6.408 10.1443 6.8407C10.5804 7.27339 10.8254 7.86025 10.8254 8.47217C10.8254 9.08409 10.5804 9.67095 10.1443 10.1036C9.70819 10.5363 9.11673 10.7794 8.50001 10.7794C7.88329 10.7794 7.29183 10.5363 6.85574 10.1036C6.41966 9.67095 6.17467 9.08409 6.17467 8.47217Z" fill="#2A2A2A"/>
</svg>
