<svg width="25" height="25" viewBox="0 0 25 25" fill="none" xmlns="http://www.w3.org/2000/svg">
<circle cx="12.5" cy="12.5" r="12.5" fill="#333333"/>
<path d="M12.5 10.9727C12.1022 10.9727 11.7206 11.1295 11.4393 11.4087C11.158 11.6879 11 12.0666 11 12.4614C11 12.8563 11.158 13.2349 11.4393 13.5141C11.7206 13.7933 12.1022 13.9502 12.5 13.9502C12.8978 13.9502 13.2794 13.7933 13.5607 13.5141C13.842 13.2349 14 12.8563 14 12.4614C14 12.0666 13.842 11.6879 13.5607 11.4087C13.2794 11.1295 12.8978 10.9727 12.5 10.9727Z" fill="white"/>
<path fill-rule="evenodd" clip-rule="evenodd" d="M9.37072 7.17156C11.4505 6.94281 13.5495 6.94281 15.6293 7.17156C16.7655 7.29742 17.6816 8.18497 17.815 9.31652C18.0617 11.409 18.0617 13.5229 17.815 15.6155C17.6816 16.747 16.7655 17.6346 15.6299 17.761C13.5499 17.9898 11.4507 17.9898 9.37072 17.761C8.23449 17.6346 7.31844 16.747 7.18501 15.616C6.93833 13.5233 6.93833 11.4092 7.18501 9.31652C7.31844 8.18497 8.23449 7.29742 9.37072 7.17156ZM15.4917 8.90391C15.333 8.90391 15.1808 8.96646 15.0686 9.0778C14.9564 9.18913 14.8934 9.34014 14.8934 9.49759C14.8934 9.65505 14.9564 9.80605 15.0686 9.91739C15.1808 10.0287 15.333 10.0913 15.4917 10.0913C15.6504 10.0913 15.8026 10.0287 15.9148 9.91739C16.027 9.80605 16.09 9.65505 16.09 9.49759C16.09 9.34014 16.027 9.18913 15.9148 9.0778C15.8026 8.96646 15.6504 8.90391 15.4917 8.90391ZM9.65792 12.466C9.65792 11.7181 9.95736 11.0008 10.4904 10.472C11.0233 9.94312 11.7462 9.64601 12.5 9.64601C13.2538 9.64601 13.9767 9.94312 14.5097 10.472C15.0427 11.0008 15.3421 11.7181 15.3421 12.466C15.3421 13.2139 15.0427 13.9312 14.5097 14.46C13.9767 14.9889 13.2538 15.286 12.5 15.286C11.7462 15.286 11.0233 14.9889 10.4904 14.46C9.95736 13.9312 9.65792 13.2139 9.65792 12.466Z" fill="white"/>
</svg>
