<svg width="17" height="17" viewBox="0 0 17 17" fill="none" xmlns="http://www.w3.org/2000/svg">
<circle cx="8.5" cy="8.5" r="8.5" fill="white"/>
<path fill-rule="evenodd" clip-rule="evenodd" d="M11.9642 5.05473C12.0871 5.00627 12.2217 4.98956 12.3539 5.00633C12.4861 5.0231 12.6111 5.07275 12.7158 5.1501C12.8206 5.22745 12.9012 5.32968 12.9495 5.44615C12.9977 5.56262 13.0118 5.68907 12.9901 5.81233L11.8617 12.2221C11.7522 12.8404 11.0278 13.195 10.4223 12.887C9.91579 12.6293 9.1635 12.2324 8.48684 11.8182C8.14852 11.6108 7.11213 10.9469 7.23951 10.4744C7.34896 10.0705 9.09036 8.55246 10.0854 7.64996C10.476 7.29539 10.2979 7.09084 9.83668 7.41699C8.69133 8.22678 6.85242 9.45823 6.24442 9.80488C5.70807 10.1105 5.42845 10.1627 5.0941 10.1105C4.48411 10.0155 3.91841 9.86825 3.45669 9.68887C2.83277 9.44658 2.86312 8.64332 3.45619 8.40942L11.9642 5.05473Z" fill="#2A2A2A"/>
</svg>
