<svg width="25" height="25" viewBox="0 0 25 25" fill="none" xmlns="http://www.w3.org/2000/svg">
<circle cx="12.5" cy="12.5" r="12.5" fill="#333333"/>
<path fill-rule="evenodd" clip-rule="evenodd" d="M15.8606 8.06157C15.9958 8.00705 16.1439 7.98825 16.2893 8.00712C16.4347 8.02599 16.5722 8.08184 16.6874 8.16886C16.8026 8.25588 16.8914 8.37089 16.9444 8.50192C16.9975 8.63295 17.0129 8.7752 16.9891 8.91387L15.7478 16.1249C15.6274 16.8205 14.8306 17.2194 14.1645 16.8729C13.6074 16.583 12.7799 16.1364 12.0355 15.6704C11.6634 15.4372 10.5233 14.6902 10.6635 14.1587C10.7839 13.7043 12.6994 11.9965 13.794 10.9812C14.2236 10.5823 14.0277 10.3522 13.5203 10.7191C12.2605 11.6301 10.2377 13.0155 9.56886 13.4055C8.97888 13.7494 8.67129 13.8081 8.30351 13.7494C7.63253 13.6424 7.01025 13.4768 6.50236 13.275C5.81605 13.0024 5.84943 12.0987 6.50181 11.8356L15.8606 8.06157Z" fill="white"/>
</svg>
