<svg width="11" height="9" viewBox="0 0 11 9" fill="none" xmlns="http://www.w3.org/2000/svg">
<path fill-rule="evenodd" clip-rule="evenodd" d="M9.86059 0.0615718C9.99583 0.00705326 10.1439 -0.0117498 10.2893 0.00711944C10.4347 0.0259887 10.5722 0.0818406 10.6874 0.168862C10.8026 0.255883 10.8914 0.370892 10.9444 0.501919C10.9975 0.632945 11.0129 0.775199 10.9891 0.913874L9.74784 8.12489C9.62744 8.82047 8.83057 9.21936 8.16451 8.87288C7.60737 8.58302 6.77985 8.13642 6.03553 7.67044C5.66337 7.43718 4.52335 6.69024 4.66346 6.15873C4.78386 5.70427 6.6994 3.99652 7.79399 2.9812C8.22362 2.58231 8.02769 2.3522 7.52035 2.71912C6.26047 3.63013 4.23766 5.01551 3.56886 5.40549C2.97888 5.74935 2.67129 5.80806 2.30351 5.74935C1.63253 5.64242 1.01025 5.47678 0.502357 5.27498C-0.183953 5.00241 -0.150568 4.09874 0.50181 3.8356L9.86059 0.0615718Z" fill="#F7F7F7"/>
</svg>
