<svg width="339" height="189" viewBox="0 0 339 189" fill="none" xmlns="http://www.w3.org/2000/svg">
<path d="M77.7332 69.5692C61.6653 69.4093 54.9113 76.1851 54.918 82.6079C54.918 84.7566 55.2076 87.0352 55.2076 87.0352C60.6168 83.4074 68.4993 81.5685 77.0109 82.5013C91.937 84.1336 103.142 93.6678 102.033 103.795C101.021 113.043 90.0962 119.585 76.8411 119.405C95.9082 120.028 111.72 111.177 113.105 98.4948C114.602 84.8232 98.8874 69.7857 77.7332 69.5692Z" fill="url(#paint0_linear_795_286)"/>
<path d="M75.872 119.43C91.9399 119.593 98.6939 112.817 98.6872 106.395C98.6872 104.246 98.3976 101.967 98.3976 101.967C92.9884 105.595 85.1059 107.434 76.5943 106.501C61.6682 104.869 50.4636 95.3346 51.5721 85.2075C52.5807 75.9631 63.509 69.4205 76.7641 69.597C57.697 68.9774 41.8855 77.8253 40.5007 90.5076C39.0061 104.179 54.7178 119.22 75.8753 119.433L75.872 119.43Z" fill="url(#paint1_linear_795_286)"/>
<path d="M127.176 116.955H155.703V109.973H134.153V97.0773H153.48V90.0949H134.153V80.3808H155.703V73.3984H127.176V116.955Z" fill="#2852A0"/>
<path d="M198.445 116.95H226.969V109.967H205.422V103.415H224.746V96.4321H205.422V91.3652H226.969V84.3828H198.445V116.95Z" fill="#2852A0"/>
<path d="M184.946 104.124L169.471 84.3828H162.234V116.95H169.211V95.3095L186.165 116.95H191.923V84.3828H184.946V104.124Z" fill="#2852A0"/>
<path d="M284.632 84.9125L284.399 84.3828H277.599L263.195 116.95H270.795L273.611 110.647H288.387L291.203 116.95H298.803L284.632 84.9125ZM285.308 103.664H276.683L280.994 93.9336L285.305 103.664H285.308Z" fill="#2852A0"/>
<path d="M168.435 75.7291H166.648C166.555 75.1927 166.228 74.8263 165.469 74.8263C164.84 74.8263 164.428 75.0695 164.428 75.5292C164.428 75.9389 164.721 76.1188 165.29 76.2321L166.288 76.442C167.603 76.7151 168.442 77.2515 168.442 78.4807C168.442 79.9099 167.264 80.7926 165.479 80.7926C163.872 80.7926 162.42 80.0265 162.254 78.2575H164.041C164.158 78.8871 164.694 79.2869 165.533 79.2869C166.162 79.2869 166.541 79.0437 166.541 78.644C166.541 78.3908 166.405 78.1276 165.786 78.0143L164.607 77.7612C163.199 77.4547 162.537 76.8151 162.537 75.6791C162.537 74.25 163.692 73.3672 165.373 73.3672C166.528 73.3672 168.252 73.7969 168.432 75.7224L168.435 75.7291Z" fill="#2852A0"/>
<path d="M172.375 75.0535V76.3561H175.548V77.8718H172.375V79.1111H176V80.6568H170.598V73.5078H176V75.0535H172.375Z" fill="#2852A0"/>
<path d="M181.143 78.0494L183.193 78.0694C182.837 78.7623 182.205 79.1854 181.376 79.1854C180.114 79.1854 179.305 78.2493 179.305 77.1233C179.305 75.8607 180.134 74.9879 181.366 74.9879C181.942 74.9879 182.578 75.1845 182.92 75.8274H184.844C184.448 74.2684 182.997 73.3789 181.323 73.3789C179.149 73.3789 177.508 74.9346 177.508 77.1633C177.508 79.2153 179.072 80.801 181.313 80.801C182.311 80.801 183.057 80.4213 183.573 79.7917L183.646 80.6645H184.971V76.6469H181.146V78.0461L181.143 78.0494Z" fill="#2852A0"/>
<path d="M260.447 95.2828C260.447 88.3471 254.812 84.3828 247.881 84.3828H233.461V116.95H240.438V106.03H244.096L251.506 116.95H260.77L252.488 105.153C257.278 103.271 260.447 100.483 260.447 95.2795V95.2828ZM253.47 95.2828C253.47 98.3676 250.964 99.0472 247.881 99.0472H240.438V91.3652H247.881C250.964 91.3652 253.47 92.198 253.47 95.2828Z" fill="#2852A0"/>
<defs>
<linearGradient id="paint0_linear_795_286" x1="113.204" y1="94.5039" x2="54.918" y2="94.5039" gradientUnits="userSpaceOnUse">
<stop stop-color="#3F9C35"/>
<stop offset="0.12" stop-color="#60A92C"/>
<stop offset="0.25" stop-color="#7BB425"/>
<stop offset="0.39" stop-color="#90BC20"/>
<stop offset="0.54" stop-color="#9FC21C"/>
<stop offset="0.72" stop-color="#A8C519"/>
<stop offset="1" stop-color="#ABC719"/>
</linearGradient>
<linearGradient id="paint1_linear_795_286" x1="40.4008" y1="94.5018" x2="98.6872" y2="94.5018" gradientUnits="userSpaceOnUse">
<stop stop-color="#4CC0E4"/>
<stop offset="1" stop-color="#2852A0"/>
</linearGradient>
</defs>
</svg>
