<svg width="339" height="190" viewBox="0 0 339 190" fill="none" xmlns="http://www.w3.org/2000/svg">
<path fill-rule="evenodd" clip-rule="evenodd" d="M177.57 55.1723C181.006 54.5572 181.301 53.9204 186.422 53.4192C196.8 52.4168 206.04 55.8091 215.895 54.9907C232.055 53.671 241.613 40.9709 243.547 40.7433C243.092 43.247 238.995 49.9615 237.54 51.8042C235.058 54.8987 231.532 57.4024 227.707 59.0876C227.501 70.0807 227.707 81.2335 227.707 92.2483C227.707 101.989 228.731 115.372 225.452 123.36C219.673 137.426 203.079 137.061 189.902 133.489C187.078 132.714 183.212 131.487 180.548 130.349C179.502 129.893 178.592 129.392 177.611 129.075L177.565 149.877C179.044 151.584 183.914 153.586 186.35 154.383C189.832 155.521 193.473 156.296 197.343 156.865C210.065 158.686 220.67 158.64 232.232 153.657C241.426 149.698 248.71 142.983 253.671 134.608C257.061 128.872 259.269 121.339 259.451 113.646C259.678 104.747 259.473 95.5971 259.473 86.6767C259.473 82.6258 259.722 35.3776 259.427 32.7383H177.584L177.562 55.1795L177.57 55.1723Z" fill="#345126"/>
<path fill-rule="evenodd" clip-rule="evenodd" d="M152.934 113.134L157.077 113.156C157.031 102.231 157.077 113.156 157.031 102.117C158.009 102.981 163.379 111.836 164.517 113.132L168.045 113.153L168.113 94.7873L164.04 94.6953V105.688C163.517 105.461 157.304 95.8552 156.597 94.7873L152.934 94.6953V113.129V113.134Z" fill="#345126"/>
<path fill-rule="evenodd" clip-rule="evenodd" d="M101.285 98.3926C103.401 98.211 107.111 97.7315 107.065 100.327C107.043 102.923 103.469 102.468 101.285 102.33V98.3926ZM108.021 105.356C109.728 104.197 110.82 103.582 111.208 101.441C111.617 99.257 110.888 97.2981 109.661 96.2303C107.135 94.0462 101.217 94.6152 97.188 94.729C97.188 97.2787 97.0064 111.935 97.3018 113.163L101.261 113.141L101.283 106.063H103.808C104.811 107.269 105.924 111.458 106.881 113.141L111.365 113.163C110.864 110.841 108.612 107.654 108.019 105.356H108.021Z" fill="#345126"/>
<path fill-rule="evenodd" clip-rule="evenodd" d="M125.815 106.302C125.907 108.397 123.859 110.034 121.604 109.329C119.374 108.624 119.648 106.278 119.648 104.186C119.648 101.774 119.239 99.6582 121.241 98.7017C122.13 98.2683 123.471 98.3143 124.268 98.7477C125.292 99.2949 125.178 99.726 125.769 100.636H129.525C129.958 95.9946 124.382 93.5805 120.147 94.9244C115.505 96.382 115.435 100.728 115.573 106.327C115.779 114.838 125.905 115.249 129.07 109.809C130.094 108.055 130.072 105.302 129.888 102.891L122.127 102.912L122.149 106.281L125.813 106.302H125.815Z" fill="#345126"/>
<path fill-rule="evenodd" clip-rule="evenodd" d="M84.6508 98.502C87.9971 97.8192 88.4523 100.255 88.4523 103.03C88.4523 105.805 88.8858 108.834 86.244 109.403C82.8299 110.132 82.3287 107.604 82.3287 104.761C82.3287 101.919 81.7597 99.0711 84.6508 98.502ZM78.2099 101.507C78.1881 104.192 77.9363 107.219 78.8928 109.427C81.0332 114.343 87.7017 114.183 90.5904 111.43C92.9343 109.2 92.6171 105.853 92.6171 102.258C92.5953 91.744 78.4157 92.3348 78.2099 101.507Z" fill="#345126"/>
<path fill-rule="evenodd" clip-rule="evenodd" d="M169.163 76.525L170.824 82.2152L167.342 82.1934L169.163 76.5274V76.525ZM160.332 89.4527C164.565 89.4745 160.332 89.4745 164.565 89.4745L165.998 85.719L172.233 85.673L173.599 89.4503H177.717C177.24 88.1306 171.572 73.6557 170.754 70.9922H167.477L160.332 89.4503V89.4527Z" fill="#345126"/>
<path fill-rule="evenodd" clip-rule="evenodd" d="M140.911 100.436L142.778 105.966L139.318 105.874L140.911 100.436ZM132.422 113.136L136.565 113.157L137.998 109.38L144.12 109.402L145.531 113.133L149.742 113.155L142.71 94.7648L139.456 94.7188C138.773 96.266 132.446 112.494 132.424 113.131L132.422 113.136Z" fill="#345126"/>
<path fill-rule="evenodd" clip-rule="evenodd" d="M185.7 79.904C185.472 80.7224 183.31 83.7491 182.719 84.6378C182.15 85.4804 180.009 88.3933 179.668 89.3933H184.152L187.748 83.5433L191.525 89.4611L195.986 89.4394C195.918 88.4829 190.387 81.427 189.954 79.904C190.591 78.6304 192.002 76.7175 192.753 75.5794C193.344 74.6908 195.325 71.9619 195.598 70.9595L191.046 70.9812C190.797 71.5043 188.45 75.715 187.813 76.3058C187.767 76.284 187.721 76.1702 187.7 76.192L184.605 71.003L180.007 70.957C180.302 71.9353 184.787 78.3301 185.697 79.9016L185.7 79.904Z" fill="#345126"/>
<path fill-rule="evenodd" clip-rule="evenodd" d="M129.079 74.6081L136.658 74.6299C135.839 77.0198 130.672 82.8456 128.829 86.1241C128.694 86.3299 128.737 86.2597 128.783 89.4244H141.779V85.6931H133.837C134.132 84.8045 137.592 80.2305 138.503 78.9569L141.643 74.3369C141.689 73.4724 141.711 73.4724 141.665 70.9688H129.171L129.079 74.6105V74.6081Z" fill="#345126"/>
<path fill-rule="evenodd" clip-rule="evenodd" d="M192.433 107.202C192.387 107.338 192.298 107.498 192.228 107.611C192.068 107.907 191.659 108.842 190.567 109.273C189.521 109.682 188.109 109.478 187.358 108.885C185.697 107.611 186.085 104.607 186.085 102.352C186.106 97.3449 191.615 97.8001 192.23 99.9624L192.436 100.623C196.053 100.645 195.213 100.645 196.053 100.645C196.053 100.282 196.007 99.9624 195.986 99.5071C195.758 94.7734 186.608 92.2019 183.218 97.6645C182.034 99.6452 182.147 101.352 182.147 104.013C182.147 108.861 182.852 112.457 187.656 113.185C190.024 113.549 192.184 113.118 193.734 112.047C195.463 110.817 196.102 109.224 196.17 107.178L192.438 107.2L192.433 107.202Z" fill="#345126"/>
<path fill-rule="evenodd" clip-rule="evenodd" d="M105.344 74.6299H111.216C111.262 77.3612 111.351 80.7293 111.216 83.3928C111.148 84.6907 110.6 85.7149 109.189 85.8287C107.663 85.9425 107.119 85.0321 106.116 84.5308C105.661 84.8941 103.794 86.5793 103.566 87.2404C105.978 90.5165 112.717 90.4487 114.605 86.6713C115.789 84.3032 115.288 74.4507 115.242 70.9905L105.319 70.9688L105.341 74.6323L105.344 74.6299Z" fill="#345126"/>
<path fill-rule="evenodd" clip-rule="evenodd" d="M173.477 113.165L177.549 113.076V94.7312L173.477 94.707V113.165Z" fill="#345126"/>
<path fill-rule="evenodd" clip-rule="evenodd" d="M120.176 89.3825L124.251 89.4285L124.273 71.0164L120.2 70.9922L120.176 89.3825Z" fill="#345126"/>
<path fill-rule="evenodd" clip-rule="evenodd" d="M144.857 74.6081L152.436 74.6299C151.593 77.0198 146.428 82.8456 144.583 86.1241C144.469 86.3299 144.491 86.2597 144.537 89.4244H157.533L157.555 85.6931H149.612C149.886 84.8045 153.368 80.2305 154.254 78.9569L157.395 74.3369C157.441 73.4724 157.463 73.4724 157.417 70.9688H144.922L144.854 74.6105L144.857 74.6081Z" fill="#345126"/>
</svg>
