<svg width="339" height="189" viewBox="0 0 339 189" fill="none" xmlns="http://www.w3.org/2000/svg">
<mask id="mask0_795_239" style="mask-type:luminance" maskUnits="userSpaceOnUse" x="62" y="69" width="213" height="50">
<path d="M253.829 113.276H249.827V81.7276H252.552C263.55 81.7276 269.189 87.8653 269.189 97.3659C269.189 106.866 263.146 113.276 253.829 113.276ZM254.739 77.366H240.605V77.9096C242.286 77.9096 244.012 77.8654 244.012 80.1347L244.056 114.863C244.056 116.184 243.19 117.043 241.875 117.043H241.736V117.631H253.645C266.42 117.631 274.96 109.629 274.96 97.2711C274.96 84.9134 266.825 77.3597 254.732 77.3597L254.739 77.366ZM227.375 77.366V77.9096H227.735C229.417 77.9096 230.51 79.0032 230.51 80.6846V108.276L206.92 77.366H197.603C198.829 78.0045 199.467 78.3205 199.556 78.409C202.419 79.9577 202.919 82.9539 202.919 85.0019V114.319C202.919 115.956 201.781 117.043 200.144 117.043H199.733V117.631H210.093V117.043H209.682C208.001 117.043 206.907 115.95 206.907 114.319V86.8666L230.409 117.638H234.543V80.6846C234.543 79.0032 235.637 77.9096 237.318 77.9096H237.678V77.366H227.362H227.375ZM194.24 111.095C191.737 112.593 188.197 113.592 185.283 113.592H175.194V96.639H186.465C187.236 96.639 188.285 97.505 189.057 97.821L190.15 98.3646L190.694 90.3179L189.967 91.0448C189.379 91.6327 188.424 92.5935 187.603 92.5935H175.194V81.3673H185.283C188.191 81.3673 191.876 82.2333 194.373 83.6429L195.555 84.2813L192.419 77.3724H165.966V77.916H166.105C168.102 77.916 169.423 79.2813 169.423 81.2788V113.731C169.423 115.729 168.102 117.05 166.105 117.05H165.966V117.638H192.419L197.603 109.003L194.24 111.095ZM149.152 97.5492L145.106 101.595H155.877V113.093C153.924 113.959 151.604 114.407 149.152 114.407C140.062 114.407 134.019 108.365 134.019 97.5429C134.019 86.7212 140.062 80.6783 149.152 80.6783C155.422 80.6783 158.968 83.2257 161.377 88.4974V80.3622C157.925 77.7706 154.379 76.6834 149.152 76.6834C136.604 76.6834 128.242 85.0019 128.242 97.5492C128.242 110.097 136.604 118.459 147.104 118.459C151.56 118.459 154.923 116.961 155.877 116.367V117.638H161.604V97.5492H149.152ZM123.065 111.095C120.561 112.593 117.022 113.592 114.108 113.592H104.019V96.639H115.29C116.061 96.639 117.11 97.505 117.881 97.821L118.975 98.3646L119.519 90.3179L118.792 91.0448C118.204 91.6327 117.249 92.5935 116.428 92.5935H104.019V81.3673H114.108C117.015 81.3673 120.701 82.2333 123.197 83.6429L124.379 84.2813L121.244 77.3724H94.7905V77.916H94.9296C96.927 77.916 98.2481 79.2813 98.2481 81.2788V113.731C98.2481 115.729 96.927 117.05 94.9296 117.05H94.7905V117.638H121.244L126.427 109.003L123.065 111.095ZM270.232 73.4217V71.9994H271.306C271.578 71.9994 271.793 72.0627 271.957 72.1954C272.122 72.3281 272.204 72.4925 272.204 72.7011C272.204 72.9223 272.115 73.0993 271.951 73.2257C271.78 73.3585 271.559 73.4217 271.287 73.4217H270.238H270.232ZM272.45 73.4723C272.646 73.2573 272.741 73.0045 272.741 72.7011C272.741 72.3408 272.608 72.05 272.349 71.8351C272.09 71.6202 271.736 71.5127 271.3 71.5127H269.682V75.1916H270.225V73.9274H271.022L272.248 75.1916H272.95L271.667 73.8894C271.995 73.8262 272.248 73.6872 272.444 73.4723H272.45ZM273.443 75.8553C272.792 76.4937 272.002 76.8098 271.066 76.8098C270.131 76.8098 269.359 76.4874 268.715 75.849C268.064 75.2042 267.741 74.4141 267.741 73.4659C267.741 72.5178 268.064 71.6834 268.715 71.0386C269.366 70.3939 270.15 70.0778 271.066 70.0778C271.983 70.0778 272.792 70.4002 273.443 71.0386C274.094 71.6834 274.416 72.4862 274.416 73.4659C274.416 74.4457 274.094 75.2232 273.443 75.8616V75.8553ZM273.835 70.6594C273.083 69.9198 272.16 69.5469 271.072 69.5469C269.985 69.5469 269.062 69.9135 268.31 70.6594C267.558 71.3989 267.179 72.3345 267.179 73.4596C267.179 74.5848 267.552 75.5076 268.31 76.2472C269.062 76.9868 269.985 77.3534 271.072 77.3534C272.16 77.3534 273.083 76.9805 273.835 76.2472C274.587 75.5076 274.966 74.5784 274.966 73.4596C274.966 72.3408 274.587 71.3989 273.835 70.6594ZM90.5617 111.089C88.0586 112.587 84.5188 113.586 81.6048 113.586H71.5163V79.0917C71.5163 78.409 71.9714 77.9096 72.6541 77.9096H72.6984V77.366H62.3318V77.9096H62.4203C64.4178 77.9096 65.7389 79.275 65.7389 81.2725V113.725C65.7389 115.722 64.4178 117.043 62.4203 117.043H62.2812V117.631H88.7349L93.9182 108.997L90.5554 111.089H90.5617Z" fill="white"/>
</mask>
<g mask="url(#mask0_795_239)">
<path d="M274.96 69.5469H62.2812V118.453H274.96V69.5469Z" fill="url(#paint0_linear_795_239)"/>
</g>
<defs>
<linearGradient id="paint0_linear_795_239" x1="276.091" y1="94.0031" x2="65.7326" y2="94.0031" gradientUnits="userSpaceOnUse">
<stop stop-color="#004367"/>
<stop offset="0.15" stop-color="#00557B"/>
<stop offset="0.35" stop-color="#006994"/>
<stop offset="0.51" stop-color="#005E87"/>
<stop offset="0.7" stop-color="#004A6B"/>
<stop offset="0.85" stop-color="#003654"/>
<stop offset="1" stop-color="#002136"/>
</linearGradient>
</defs>
</svg>
