<svg width="339" height="190" viewBox="0 0 339 190" fill="none" xmlns="http://www.w3.org/2000/svg">
<path d="M219.513 79.6287C220.565 74.0965 220.448 68.8234 220.448 68.8234C207.389 100.993 169.628 108.778 166.36 108.604C174.608 106.288 198.797 95.3532 209.883 79.8088C225.746 57.5536 215.595 45.4308 207.941 42.6758C217.164 56.8143 195.665 76.5419 188.57 79.5055C187.793 71.1392 184.165 63.3007 176.622 59.5851C176.152 62.1253 175.283 64.397 175.283 64.397C175.283 64.397 175.4 48.8241 165.277 52.6028C163.5 53.2663 161.593 54.7354 160.342 55.7306C158.252 55.4937 152.846 55.3357 149.061 56.4541C139.484 59.2882 140.09 63.3733 140.09 63.3733C135.439 65.724 130.1 70.0429 128.499 72.3525L128.483 72.4378C129.809 72.4093 130.453 71.2467 131.432 71.2877C132.616 71.3256 133.674 72.4567 133.674 72.4567C128.805 75.2781 129.383 78.4913 129.948 79.872L129.967 79.9288L130.008 80.0489C130.526 80.8514 131.521 81.7582 133.396 82.0172C136.301 82.4185 137.255 82.9714 138.518 83.3158C139.629 83.6064 140.513 83.8529 141.442 82.687C141.442 82.8545 141.359 84.8892 137.296 84.2004C133.197 83.4895 131.836 83.439 131.596 84.6743V84.6901C129.8 97.3658 143.746 90.9427 144.694 87.2082C144.694 87.2082 149.875 88.6205 156.234 87.4294C156.234 87.4294 156.263 87.4262 156.316 87.4136C156.335 87.4104 156.361 87.4041 156.389 87.3978C158.634 86.9744 161.021 86.2161 163.373 84.9523C164.21 84.5037 164.974 84.0014 165.672 83.4579C166.401 82.9556 167.099 82.3964 167.74 81.7771C167.74 81.7771 165.448 87.7927 149.992 95.0563C136.484 101.404 131.707 105.975 126.235 110.316C127.403 110.664 128.786 111.283 130.311 111.049C124.678 117.747 120.242 125.937 120.242 125.937C120.871 126.136 122.187 125.874 123.614 125.374C123.16 127.333 120.946 136.003 121.815 144.303C121.815 144.303 123.163 143.788 124.034 142.761C124.931 145.841 126.191 148.012 126.191 148.012L146.98 148.024C135.493 140.676 136.421 127.15 137.94 122.095C137.731 133.412 142.645 145.661 155.795 147.519C165.502 148.89 177.544 147.677 187.421 141.32C205.677 129.532 208.658 110.38 208.658 110.38C189.151 132.335 168.204 130.925 161.062 130.679C166.979 129.785 172.464 128.689 177.074 127.254C199.542 120.272 215.308 101.716 219.51 79.6192L219.513 79.6287ZM141.255 68.8234C141.505 67.6733 142.31 66.7034 143.434 65.8156L143.835 62.5993C145.676 62.3244 147.602 63.0005 149.563 64.1979C144.719 65.0447 141.404 68.697 141.255 68.8234ZM161.694 56.8206C161.694 56.8206 169.076 49.8446 172.761 60.4951C172.546 60.2044 168.302 54.7733 161.694 56.8206Z" fill="#223468"/>
</svg>
