<svg width="339" height="189" viewBox="0 0 339 189" fill="none" xmlns="http://www.w3.org/2000/svg">
<path fill-rule="evenodd" clip-rule="evenodd" d="M315.636 76.9453H289.229C288.045 76.9453 286.944 77.3746 286.129 78.1551C285.318 78.9312 284.871 79.9849 284.871 81.1167V107.48C284.871 108.686 285.296 109.718 286.094 110.459C286.918 111.227 288.093 111.643 289.411 111.643H315.636V91.7141H298.647L298.651 94.5369C298.651 95.3348 298.872 95.9288 299.297 96.2974C299.77 96.7007 300.537 96.9088 301.587 96.9088H309.721L309.782 106.448H290.968L290.959 82.0879L311.135 82.1443L311.456 82.14C312.826 82.14 313.901 81.8017 314.595 81.16C315.246 80.5616 315.601 79.6597 315.636 78.5453V76.9453Z" fill="#00316C"/>
<path fill-rule="evenodd" clip-rule="evenodd" d="M276.574 111.729V77.0356H270.555L270.46 101.387L252.278 77.0312H245.727V111.729H251.736L251.619 87.3686L270.017 111.729H276.574Z" fill="#00316C"/>
<path fill-rule="evenodd" clip-rule="evenodd" d="M211.817 78.2671C211.028 79.0476 210.594 80.0969 210.594 81.2286L210.59 81.6536L210.594 107.549C210.594 108.659 211.032 109.704 211.826 110.489C212.628 111.278 213.729 111.729 214.848 111.729H237.409L237.396 106.534H216.383V96.9947H237.413V91.8001H216.387L216.396 82.2259H232.769C234.395 82.2259 235.601 81.892 236.359 81.2373C237.062 80.6302 237.417 79.6676 237.417 78.3755V77.0312L214.822 77.0486C213.677 77.0443 212.61 77.4779 211.817 78.2671Z" fill="#00316C"/>
<path fill-rule="evenodd" clip-rule="evenodd" d="M202.3 111.65V76.957H196.299L196.208 101.309L178.07 76.957H171.535V111.65H177.532V87.264L195.77 111.65H202.3Z" fill="#00316C"/>
<path d="M163.238 76.9336H157.531V111.631H163.238V76.9336Z" fill="#00316C"/>
<path fill-rule="evenodd" clip-rule="evenodd" d="M146.936 111.357C147.374 111.157 147.781 110.849 148.15 110.442C148.514 110.039 148.787 109.583 148.965 109.098C149.143 108.612 149.229 108.066 149.229 107.476L149.225 95.9549C149.225 94.8145 148.818 93.7478 148.08 92.9456C147.352 92.1564 146.381 91.7185 145.344 91.7185H127.423V82.1487H145.284C146.485 82.1487 147.534 81.7757 148.236 81.095C148.887 80.4662 149.216 79.573 149.221 78.4456L149.225 76.954L126.469 76.9453L125.784 76.954C124.934 77.019 124.149 77.4006 123.547 78.0467L123.477 78.1291C122.875 78.8185 122.51 79.7204 122.428 80.7047L122.411 81.3942L122.415 92.7635C122.415 93.9299 122.796 94.9922 123.486 95.751C124.162 96.4925 125.108 96.9045 126.144 96.9045H144.069V106.448H126.157C124.904 106.483 123.959 106.808 123.339 107.415C122.718 108.027 122.406 108.976 122.406 110.247V111.643H145.479C146.008 111.656 146.498 111.556 146.936 111.357Z" fill="#00316C"/>
<path fill-rule="evenodd" clip-rule="evenodd" d="M24.1849 82.0928L24.1719 99.2421C25.1995 97.3212 27.5063 95.7255 29.4836 94.5851L55.5307 79.5518C55.4873 83.6711 55.0407 85.6354 51.8016 87.5086L29.4576 100.448C25.7329 102.603 24.1849 105.369 24.1849 109.393V113.703L53.6878 96.6708C57.9415 94.2166 59.9969 89.4859 59.9969 84.018V66.7299C59.5199 67.6709 59.0126 68.6161 57.8245 69.3099L29.1194 86.0603C28.9763 82.1535 29.618 79.9941 32.8484 78.1035L54.9063 65.1732C58.3752 63.1396 59.9969 60.668 59.9969 56.6138V51.6836L31.8078 67.957C25.9627 71.3218 24.1892 75.7274 24.1849 82.0928Z" fill="#549B35"/>
<path fill-rule="evenodd" clip-rule="evenodd" d="M75.4811 97.9109L90.3279 106.496C89.1788 104.645 88.949 101.848 88.949 99.5673L88.9534 69.492C92.5003 71.5907 93.9746 72.9566 93.9833 76.6986L94.018 102.516C94.0223 106.817 95.644 109.545 99.1259 111.557L102.859 113.712V79.6429C102.859 74.73 99.7937 70.5891 95.0543 67.853L80.0817 59.2111C80.6584 60.0957 81.2221 61.0062 81.2307 62.3851L81.3825 95.6171C77.9266 93.7873 76.3786 92.1526 76.3526 88.4105L76.1835 62.8404C76.1575 58.8208 74.8263 56.1801 71.3141 54.1508L67.043 51.6836V84.2348C67.0386 90.9818 69.9699 94.7239 75.4811 97.9109Z" fill="#00316C"/>
<path fill-rule="evenodd" clip-rule="evenodd" d="M71.8525 134.261L86.708 125.697C84.5313 125.767 81.9947 124.57 80.0174 123.425L53.9747 108.388C57.565 106.367 59.4902 105.769 62.7293 107.637L85.1037 120.516C88.8327 122.662 92.0024 122.623 95.4887 120.611L99.2177 118.456L69.7148 101.419C65.4611 98.9652 60.3401 99.5463 55.6007 102.282L40.6281 110.929C41.6818 110.872 42.7528 110.838 43.9496 111.523L72.8064 128.004C69.4936 130.081 67.3039 130.606 64.0518 128.754L41.8249 116.119C38.33 114.133 35.3814 113.964 31.8648 115.993L27.5938 118.46L55.7828 134.738C61.6323 138.107 66.3369 137.44 71.8525 134.261Z" fill="#00316C"/>
</svg>
