<svg width="339" height="190" viewBox="0 0 339 190" fill="none" xmlns="http://www.w3.org/2000/svg">
<path fill-rule="evenodd" clip-rule="evenodd" d="M84.7443 63.418L84.7472 63.4199L102.732 73.918V94.9152V115.913L84.7472 126.412L66.7616 136.91L54.3164 129.646L90.7538 92.9382L70.839 87.7733L84.7443 63.418Z" fill="#01835D"/>
<path fill-rule="evenodd" clip-rule="evenodd" d="M66.768 52.9219L79.2132 60.1862L42.7748 96.8942L62.6906 102.059L48.7853 126.414L48.7824 126.412L30.7969 115.914V94.9162V73.9191L48.7824 63.42L66.768 52.9219Z" fill="#0573A8"/>
<path d="M134.713 85.8192H132.023V67.964H120.742V63.418H145.938V67.8913H134.713V85.8192Z" fill="#1E1E1C"/>
<path d="M177.891 78.6333V85.7829H175.238V63.418H197.122C199.239 63.418 200.308 65.1779 200.308 68.734V73.1327C200.308 76.7989 199.26 78.6687 197.143 78.6687L177.89 78.6324L177.891 78.6333ZM196.672 67.8904H177.891L177.87 74.1227H196.694C197.336 74.1227 197.657 73.5364 197.657 72.3628V69.613C197.678 68.4394 197.336 67.8894 196.672 67.8894" fill="#1E1E1C"/>
<path d="M254.674 85.7841H229.625V63.3828H232.257V81.3107H254.696L254.674 85.7841Z" fill="#1E1E1C"/>
<path d="M306.439 85.7456H309.071V63.4543H306.439L306.461 80.5032L286.631 63.418H284L284.043 85.8192H286.653V68.5876L306.439 85.7456Z" fill="#1E1E1C"/>
<path d="M173.122 63.418H148.055V67.8894H173.122V63.418Z" fill="#1E1E1C"/>
<path d="M173.122 72.3047H148.055V76.7761H173.122V72.3047Z" fill="#01835D"/>
<path d="M173.122 81.3203H148.055V85.7918H173.122V81.3203Z" fill="#1E1E1C"/>
<path d="M281.864 63.418H256.797V67.8894H281.864V63.418Z" fill="#1E1E1C"/>
<path d="M281.864 72.3047H256.797V76.7761H281.864V72.3047Z" fill="#01835D"/>
<path d="M281.864 81.3203H256.797V85.7918H281.864V81.3203Z" fill="#1E1E1C"/>
<path d="M227.485 63.418H202.418V67.8894H227.485V63.418Z" fill="#1E1E1C"/>
<path d="M227.485 72.3047H202.418V76.7761H227.485V72.3047Z" fill="#01835D"/>
<path d="M227.485 81.3203H202.418V85.7918H227.485V81.3203Z" fill="#1E1E1C"/>
<path d="M132.778 117.476V113.04H145.843V120.959C145.843 124.625 144.794 126.459 142.695 126.459H123.891C121.791 126.459 120.742 124.625 120.742 120.959L120.785 109.446C120.785 105.89 121.813 104.094 123.87 104.094H145.844V108.566H124.384C123.721 108.566 123.378 109.19 123.378 110.51V120.153C123.378 121.363 123.72 121.985 124.384 121.985H142.203C142.889 121.985 143.231 121.363 143.231 120.189V117.476H132.78H132.778Z" fill="#1E1E1C"/>
<path d="M169.301 108.521H150.603V114.791H169.408C170.094 114.791 170.457 114.167 170.457 112.884V110.316C170.457 109.107 170.093 108.52 169.301 108.52M173.113 126.448H169.922L166.752 119.262H150.603V126.448H147.969L148.012 104.047H169.964C172.041 104.047 173.069 105.807 173.069 109.327V113.91C173.069 117.466 172.02 119.262 169.921 119.262L173.112 126.448H173.113Z" fill="#1E1E1C"/>
<path d="M178.332 126.458C176.233 126.458 175.184 124.661 175.184 121.069V109.447C175.184 105.89 176.212 104.094 178.289 104.094H197.094C199.213 104.094 200.284 105.927 200.284 109.593V121.18C200.284 124.663 199.256 126.386 197.201 126.386L178.332 126.459V126.458ZM197.65 120.225V110.436C197.65 109.189 197.308 108.566 196.601 108.566H178.867C178.16 108.566 177.818 109.152 177.818 110.326V120.152C177.818 121.362 178.16 121.985 178.867 121.985H196.622C197.308 121.985 197.65 121.399 197.65 120.225Z" fill="#1E1E1C"/>
<path d="M224.876 120.142V104.047H227.468V120.948C227.468 124.615 226.419 126.448 224.32 126.448H205.516C203.416 126.448 202.367 124.615 202.367 120.948V104.047H205.002V120.106C205.002 121.352 205.344 121.976 206.03 121.976H223.849C224.535 121.976 224.877 121.352 224.877 120.142" fill="#1E1E1C"/>
<path d="M232.238 119.309V126.459H229.582V104.094H251.491C253.612 104.094 254.683 105.854 254.683 109.41V113.809C254.683 117.475 253.633 119.345 251.512 119.345L232.237 119.308L232.238 119.309ZM251.042 108.566H232.238L232.217 114.798H251.064C251.707 114.798 252.028 114.212 252.028 113.039V110.289C252.049 109.115 251.707 108.565 251.043 108.565" fill="#1E1E1C"/>
<path fill-rule="evenodd" clip-rule="evenodd" d="M70.8457 87.77L96.5914 42.6758L42.7761 96.8899L62.69 102.055L36.9453 147.148L90.7606 92.9349L70.8457 87.77Z" fill="white"/>
<path d="M30.8281 155.194L60.6798 102.906L40.2089 97.5967L102.707 34.6367L72.8546 86.9255L93.3256 92.2338L30.8281 155.194ZM45.3402 96.1888L64.6989 101.209L43.0612 139.109L88.1952 93.6417L68.8356 88.6222L90.4742 50.7225L45.3402 96.1897V96.1888Z" fill="#C7431B"/>
</svg>
