<svg width="317" height="117" viewBox="0 0 317 117" fill="none" xmlns="http://www.w3.org/2000/svg">
<path d="M48.9457 29.8558H13.6271V42.6798L54.8321 42.4696V52H1.78414V0.143316H54.8321L54.9022 9.67373H13.6271V20.3955H48.9457V29.8558ZM73.2333 52H61.3903V0.143316L73.2333 52ZM122.707 52H110.864H122.707ZM110.864 36.9335V0.143316H122.707V52H110.864L73.2333 15.1397V52H61.3903V0.143316H73.2333L110.864 36.9335ZM129.252 10.0241V0.143316H187.977L129.252 10.0241ZM187.977 0.143316V10.2343H164.711V52H152.868V10.2343H129.252V0.143316H187.977ZM241.656 29.8558H206.338V42.6798L247.543 42.4696V52H194.495V0.143316H247.543L247.613 9.67373H206.338V20.3955H241.656V29.8558ZM298.67 51.8598L284.304 35.1115H265.734V51.8598H254.101V0.00316041H290.751C295.096 0.00316041 298.927 0.727286 302.244 2.17554C305.607 3.62379 308.2 5.65601 310.022 8.2722C311.891 10.8417 312.825 13.8316 312.825 17.242V17.5223C312.825 21.9605 311.517 25.6278 308.901 28.5243C306.331 31.4208 302.757 33.3596 298.179 34.3407L313.246 51.8598H298.67ZM300.912 17.8026C300.912 15.1397 300.398 13.2009 299.37 11.9863C298.389 10.7716 297.128 10.0241 295.586 9.74381C294.045 9.4635 291.872 9.32335 289.069 9.32335C287.808 9.32335 286.733 9.34671 285.846 9.39342C279.539 9.53358 272.835 9.60366 265.734 9.60366V25.7914H288.929H289.069C291.872 25.7914 294.045 25.6746 295.586 25.441C297.128 25.1607 298.389 24.4599 299.37 23.3387C300.398 22.1707 300.912 20.3254 300.912 17.8026ZM33.2485 84.8671C39.0882 84.8671 43.9469 85.124 47.8245 85.6379C51.7488 86.1518 55.0657 87.4132 57.7753 89.422C60.5317 91.3842 61.9099 94.3975 61.9099 98.4619C61.9099 105.61 58.8031 110.422 52.5897 112.898C46.3762 115.374 39.3919 116.612 31.6368 116.612C27.3387 116.612 22.8538 116.145 18.1821 115.21C13.5103 114.323 9.37577 112.501 5.7785 109.744C2.18124 106.941 0.382604 102.994 0.382604 97.9013L12.7161 97.6911C12.7161 100.634 13.8607 102.83 16.1498 104.278C18.439 105.68 20.9384 106.544 23.648 106.871C26.3577 107.198 29.2775 107.362 32.4076 107.362C37.1728 107.362 41.2606 106.708 44.671 105.4C48.0814 104.045 49.81 101.826 49.8567 98.7422V98.6722C49.8567 97.1772 48.899 96.056 46.9835 95.3085C45.1148 94.561 43.0359 94.1172 40.7467 93.977C38.4576 93.7901 35.6779 93.6734 32.4076 93.6266H30.8659C24.232 93.6266 18.8828 93.3697 14.8184 92.8558C10.7539 92.3419 7.32019 91.0572 4.51712 89.0016C1.76078 86.8993 0.382604 83.629 0.382604 79.1909C0.382604 71.9496 3.60613 67.2078 10.0532 64.9653C16.5469 62.7229 23.7415 61.6016 31.6368 61.6016C35.8414 61.6016 40.1861 62.0688 44.671 63.0032C49.2026 63.8908 53.197 65.7361 56.6541 68.5392C60.1579 71.2956 61.9099 75.2198 61.9099 80.3121H49.6465C49.6465 77.3221 47.9179 75.0797 44.4608 73.5847C41.0037 72.043 36.7991 71.1788 31.847 70.9919C26.4277 70.9919 21.826 71.6459 18.0419 72.954C14.3045 74.2154 12.4358 76.2243 12.4358 78.9806C12.4358 81.4099 14.2111 82.9984 17.7616 83.7458C21.3589 84.4933 25.6102 84.8671 30.5155 84.8671H33.2485ZM98.6519 62.0221C104.725 62.0221 110.191 63.19 115.05 65.5259C119.955 67.8618 123.786 71.1087 126.542 75.2666C129.299 79.4244 130.677 84.0962 130.677 89.2819C130.677 94.4208 129.299 99.0459 126.542 103.157C123.786 107.268 119.979 110.515 115.12 112.898C110.261 115.234 104.795 116.402 98.722 116.402C92.8355 116.402 87.4163 115.234 82.4642 112.898C77.5121 110.515 73.5878 107.268 70.6913 103.157C67.7948 98.9992 66.3466 94.3741 66.3466 89.2819C66.3466 84.1429 67.7948 79.4945 70.6913 75.3366C73.5878 71.1788 77.4888 67.9319 82.3941 65.596C87.3462 63.2134 92.7655 62.0221 98.6519 62.0221ZM98.6519 106.731C102.062 106.731 105.286 106.054 108.322 104.699C111.359 103.344 113.812 101.358 115.681 98.7422C117.549 96.0793 118.484 92.9259 118.484 89.2819C118.484 85.6846 117.526 82.5545 115.61 79.8916C113.742 77.2287 111.266 75.1965 108.182 73.795C105.146 72.3934 101.922 71.6927 98.5117 71.6927C94.8678 71.6927 91.5274 72.3934 88.4908 73.795C85.5009 75.1965 83.1183 77.2054 81.343 79.8215C79.5677 82.4377 78.6801 85.5445 78.6801 89.1417C78.6801 92.8324 79.5911 96.0092 81.4131 98.6722C83.2818 101.288 85.7344 103.297 88.7711 104.699C91.8077 106.054 95.1013 106.731 98.6519 106.731ZM148.374 63.1433V105.259H183.973V115H136.531V63.1433H148.374ZM255.558 115H243.225L237.268 103.998H204.543L198.586 115H186.253L214.353 63.1433H227.458L255.558 115ZM220.94 73.795L209.728 94.3975H232.083L220.94 73.795ZM303.46 114.86L289.094 98.1115H270.524V114.86H258.891V63.0032H295.541C299.886 63.0032 303.717 63.7273 307.034 65.1755C310.398 66.6238 312.99 68.656 314.812 71.2722C316.681 73.8417 317.616 76.8316 317.616 80.242V80.5223C317.616 84.9605 316.307 88.6278 313.691 91.5243C311.122 94.4208 307.548 96.3596 302.97 97.3407L318.036 114.86H303.46ZM305.703 80.8026C305.703 78.1397 305.189 76.2009 304.161 74.9863C303.18 73.7716 301.918 73.0241 300.377 72.7438C298.835 72.4635 296.663 72.3233 293.86 72.3233C292.598 72.3233 291.524 72.3467 290.636 72.3934C284.329 72.5336 277.625 72.6037 270.524 72.6037V88.7914H293.719H293.86C296.663 88.7914 298.835 88.6746 300.377 88.441C301.918 88.1607 303.18 87.4599 304.161 86.3387C305.189 85.1707 305.703 83.3254 305.703 80.8026Z" fill="#F6F6F6"/>
</svg>
