<svg width="1110" height="94" viewBox="0 0 1110 94" fill="none" xmlns="http://www.w3.org/2000/svg">
<path d="M80.0083 53.6154H20.3822V75.2653L89.946 74.9104V91H0.388513V3.45371H89.946L90.0643 19.5433H20.3822V37.6441H80.0083V53.6154ZM121.011 91H101.018V3.45371L121.011 91ZM204.535 91H184.542H204.535ZM184.542 65.5643V3.45371H204.535V91H184.542L121.011 28.7711V91H101.018V3.45371H121.011L184.542 65.5643ZM215.585 20.1348V3.45371H314.725L215.585 20.1348ZM314.725 3.45371V20.4897H275.448V91H255.454V20.4897H215.585V3.45371H314.725ZM405.349 53.6154H345.723V75.2653L415.287 74.9104V91H325.729V3.45371H415.287L415.405 19.5433H345.723V37.6441H405.349V53.6154ZM501.601 90.7634L477.349 62.4883H445.997V90.7634H426.359V3.21709H488.233C495.568 3.21709 502.035 4.43958 507.635 6.88457C513.313 9.32956 517.691 12.7604 520.767 17.1772C523.922 21.5151 525.499 26.5628 525.499 32.3203V32.7935C525.499 40.2862 523.291 46.4776 518.874 51.3676C514.536 56.2575 508.502 59.5307 500.773 61.1869L526.209 90.7634H501.601ZM505.387 33.2668C505.387 28.7711 504.519 25.498 502.784 23.4474C501.128 21.3968 498.998 20.1348 496.396 19.6616C493.793 19.1884 490.126 18.9518 485.393 18.9518C483.264 18.9518 481.45 18.9912 479.951 19.0701C469.304 19.3067 457.986 19.425 445.997 19.425V46.7536H485.157H485.393C490.126 46.7536 493.793 46.5565 496.396 46.1621C498.998 45.6889 501.128 44.5058 502.784 42.6129C504.519 40.6412 505.387 37.5258 505.387 33.2668ZM629.209 40.1285C639.068 40.1285 647.27 40.5623 653.816 41.4299C660.442 42.2974 666.041 44.4269 670.616 47.8184C675.269 51.1309 677.596 56.2181 677.596 63.0798C677.596 75.147 672.351 83.2707 661.861 87.4508C651.371 91.631 639.58 93.721 626.488 93.721C619.232 93.721 611.66 92.9323 603.773 91.3549C595.886 89.8564 588.906 86.7804 582.833 82.1271C576.76 77.3948 573.723 70.7303 573.723 62.1334L594.545 61.7785C594.545 66.7473 596.478 70.4542 600.342 72.8992C604.207 75.2653 608.426 76.7244 613.001 77.2765C617.575 77.8286 622.505 78.1047 627.789 78.1047C635.834 78.1047 642.735 77.0005 648.493 74.7921C654.25 72.5049 657.168 68.7585 657.247 63.5531V63.4347C657.247 60.9109 655.63 59.018 652.397 57.7561C649.242 56.4941 645.732 55.7449 641.868 55.5083C638.003 55.1928 633.31 54.9956 627.789 54.9167H625.186C613.987 54.9167 604.956 54.4829 598.094 53.6154C591.233 52.7478 585.436 50.5788 580.703 47.1085C576.05 43.5594 573.723 38.0384 573.723 30.5457C573.723 18.3208 579.165 10.3154 590.05 6.52965C601.013 2.74387 613.159 0.850976 626.488 0.850976C633.586 0.850976 640.921 1.63968 648.493 3.21709C656.143 4.71563 662.887 7.83102 668.723 12.5632C674.638 17.2166 677.596 23.8417 677.596 32.4386H656.892C656.892 27.3909 653.974 23.6051 648.138 21.0813C642.301 18.4785 635.203 17.0194 626.843 16.704C617.694 16.704 609.925 17.8081 603.536 20.0165C597.227 22.146 594.072 25.5375 594.072 30.1908C594.072 34.2921 597.069 36.9737 603.063 38.2356C609.136 39.4975 616.313 40.1285 624.595 40.1285H629.209ZM739.625 1.56081C749.878 1.56081 759.106 3.53257 767.309 7.4761C775.59 11.4196 782.057 16.9011 786.711 23.9206C791.364 30.9401 793.691 38.8271 793.691 47.5818C793.691 56.2575 791.364 64.0657 786.711 71.0063C782.057 77.9469 775.629 83.4284 767.427 87.4508C759.224 91.3944 749.997 93.3661 739.743 93.3661C729.806 93.3661 720.657 91.3944 712.296 87.4508C703.936 83.4284 697.311 77.9469 692.421 71.0063C687.531 63.9868 685.086 56.1787 685.086 47.5818C685.086 38.906 687.531 31.0584 692.421 24.0389C697.311 17.0194 703.897 11.5379 712.178 7.5944C720.538 3.57201 729.687 1.56081 739.625 1.56081ZM739.625 77.0399C745.383 77.0399 750.825 75.8963 755.951 73.609C761.078 71.3218 765.219 67.9698 768.373 63.5531C771.528 59.0574 773.106 53.7337 773.106 47.5818C773.106 41.5087 771.489 36.2244 768.255 31.7288C765.1 27.2332 760.92 23.8023 755.715 21.4362C750.588 19.0701 745.146 17.887 739.388 17.887C733.237 17.887 727.597 19.0701 722.471 21.4362C717.423 23.8023 713.401 27.1937 710.404 31.6105C707.406 36.0272 705.908 41.2721 705.908 47.3452C705.908 53.5759 707.446 58.9391 710.522 63.4347C713.677 67.8515 717.817 71.2429 722.944 73.609C728.071 75.8963 733.631 77.0399 739.625 77.0399ZM823.568 3.45371V74.5555H883.667V91H803.574V3.45371H823.568ZM1004.52 91H983.698L973.642 72.426H918.393L908.337 91H887.516L934.956 3.45371H957.079L1004.52 91ZM946.077 21.4362L927.148 56.2181H964.888L946.077 21.4362ZM1085.39 90.7634L1061.14 62.4883H1029.79V90.7634H1010.15V3.21709H1072.02C1079.36 3.21709 1085.82 4.43958 1091.42 6.88457C1097.1 9.32956 1101.48 12.7604 1104.56 17.1772C1107.71 21.5151 1109.29 26.5628 1109.29 32.3203V32.7935C1109.29 40.2862 1107.08 46.4776 1102.66 51.3676C1098.32 56.2575 1092.29 59.5307 1084.56 61.1869L1110 90.7634H1085.39ZM1089.18 33.2668C1089.18 28.7711 1088.31 25.498 1086.57 23.4474C1084.92 21.3968 1082.79 20.1348 1080.18 19.6616C1077.58 19.1884 1073.91 18.9518 1069.18 18.9518C1067.05 18.9518 1065.24 18.9912 1063.74 19.0701C1053.09 19.3067 1041.77 19.425 1029.79 19.425V46.7536H1068.94H1069.18C1073.91 46.7536 1077.58 46.5565 1080.18 46.1621C1082.79 45.6889 1084.92 44.5058 1086.57 42.6129C1088.31 40.6412 1089.18 37.5258 1089.18 33.2668Z" fill="#F6F6F6"/>
</svg>
